<?xml version="1.0" encoding="UTF-8" standalone="no"?>
<!-- Created with Inkscape (http://www.inkscape.org/) -->

<svg
   xmlns:dc="http://purl.org/dc/elements/1.1/"
   xmlns:cc="http://creativecommons.org/ns#"
   xmlns:rdf="http://www.w3.org/1999/02/22-rdf-syntax-ns#"
   xmlns:svg="http://www.w3.org/2000/svg"
   xmlns="http://www.w3.org/2000/svg"
   xmlns:sodipodi="http://sodipodi.sourceforge.net/DTD/sodipodi-0.dtd"
   xmlns:inkscape="http://www.inkscape.org/namespaces/inkscape"
   width="552.8313"
   height="293.48401"
   id="svg3178"
   version="1.1"
   inkscape:version="0.48.5 r10040"
   sodipodi:docname="New document 6">
  <defs
     id="defs3180" />
  <sodipodi:namedview
     id="base"
     pagecolor="#ffffff"
     bordercolor="#666666"
     borderopacity="1.0"
     inkscape:pageopacity="0.0"
     inkscape:pageshadow="2"
     inkscape:zoom="0.35"
     inkscape:cx="933.36854"
     inkscape:cy="109.42044"
     inkscape:document-units="px"
     inkscape:current-layer="text3117"
     showgrid="false"
     inkscape:window-width="1776"
     inkscape:window-height="937"
     inkscape:window-x="-8"
     inkscape:window-y="-8"
     inkscape:window-maximized="1"
     fit-margin-top="0"
     fit-margin-left="0"
     fit-margin-right="0"
     fit-margin-bottom="0" />
  <metadata
     id="metadata3183">
    <rdf:RDF>
      <cc:Work
         rdf:about="">
        <dc:format>image/svg+xml</dc:format>
        <dc:type
           rdf:resource="http://purl.org/dc/dcmitype/StillImage" />
        <dc:title></dc:title>
      </cc:Work>
    </rdf:RDF>
  </metadata>
  <g
     inkscape:label="Layer 1"
     inkscape:groupmode="layer"
     id="layer1"
     transform="translate(-89.298661,-348.29861)">
    <g
       style="font-size:173.51699829px;font-style:normal;font-weight:normal;line-height:125%;letter-spacing:0px;word-spacing:0px;fill:#333333;fill-opacity:1;stroke:none;font-family:Sans"
       id="text3113">
      <path
         d="m 95.991944,351.43343 -5.083506,0 c -0.282419,1.3e-4 -0.508352,-0.0987 -0.677801,-0.29653 -0.169451,-0.19757 -0.254176,-0.43762 -0.254175,-0.72017 -10e-7,-0.33877 0.08472,-0.60707 0.254175,-0.80489 0.169449,-0.19756 0.395382,-0.29641 0.677801,-0.29653 l 27.535652,0 c 0.28239,1.2e-4 0.52245,0.099 0.72017,0.29653 0.19766,0.19782 0.29651,0.43788 0.29654,0.72017 -3e-5,0.33902 -0.0989,0.60732 -0.29654,0.80489 -0.19772,0.19781 -0.43778,0.29666 -0.72017,0.29653 l -5.0835,0 0,123.10557 5.0835,0 c 0.56481,0.39538 0.84723,0.76253 0.84726,1.10143 -3e-5,0.39538 -0.28245,0.76252 -0.84726,1.10142 l -28.213453,0 c -0.621318,-0.39538 -0.931976,-0.76252 -0.931976,-1.10142 0,-0.3389 0.310658,-0.70605 0.931976,-1.10143 l 5.761307,0 z"
         style="fill:#333333;font-family:Onyx;-inkscape-font-specification:Onyx"
         id="path3267"
         inkscape:connector-curvature="0" />
      <path
         d="m 128.44166,388.03468 -3.64318,0 -0.50835,-0.16945 c -0.16946,-0.22585 -0.25418,-0.53651 -0.25418,-0.93198 0,-0.33881 0.25417,-0.70595 0.76253,-1.10143 l 18.55479,0 0,6.94746 c 1.9769,-2.99353 3.92557,-5.0693 5.84603,-6.22729 1.92041,-1.15782 4.23623,-1.73678 6.94746,-1.73687 3.6149,9e-5 6.18489,0.90383 7.70999,2.7112 2.20281,2.59833 3.30423,6.32623 3.30428,11.18372 l 0,75.82896 2.79592,0 c 0.33886,0 0.60715,0.0989 0.80489,0.29654 0.19765,0.19769 0.29649,0.46599 0.29654,0.80489 -5e-5,0.3389 -0.0989,0.60719 -0.29654,0.80488 -0.19774,0.1977 -0.46603,0.29654 -0.80489,0.29654 l -19.57149,0 c -0.28245,0 -0.5225,-0.0988 -0.72017,-0.29654 -0.19772,-0.19769 -0.29656,-0.46598 -0.29654,-0.80488 -2e-5,-0.3389 0.0988,-0.6072 0.29654,-0.80489 0.19767,-0.19769 0.43772,-0.29654 0.72017,-0.29654 l 1.6945,0 0,-79.30269 c -3e-5,-1.7509 -0.22596,-2.92293 -0.6778,-3.51609 -0.4519,-0.59299 -1.07322,-0.88953 -1.86395,-0.88962 -1.4686,9e-5 -2.73947,0.8191 -3.81263,2.45703 -1.58156,2.42887 -2.37233,6.41094 -2.37231,11.94624 l 0,69.30513 2.11813,0 c 0.56481,0.39538 0.84723,0.76253 0.84725,1.10143 -2e-5,0.3389 -0.28244,0.70604 -0.84725,1.10142 l -20.67292,0 c -0.56484,-0.39538 -0.84726,-0.76252 -0.84725,-1.10142 -10e-6,-0.3389 0.28241,-0.70605 0.84725,-1.10143 l 3.64318,0 z"
         style="fill:#333333;font-family:Onyx;-inkscape-font-specification:Onyx"
         id="path3269"
         inkscape:connector-curvature="0" />
      <path
         d="m 181.47957,388.03468 -3.98208,0 c -0.50836,8e-5 -0.90374,-0.11288 -1.18615,-0.3389 -0.28242,-0.22585 -0.42363,-0.50827 -0.42363,-0.84726 0,-0.39529 0.25417,-0.81891 0.76253,-1.27087 4.74459,-3.67133 8.19008,-7.32862 10.33646,-10.9719 2.14635,-3.64308 4.03854,-7.89345 5.67658,-12.75113 1.18613,-3.50185 1.80745,-5.93064 1.86395,-7.28636 l 0.16945,-3.89735 c 0.16943,-0.28229 0.42361,-0.4235 0.76253,-0.42363 0.33888,1.3e-4 0.60717,0.0849 0.80489,0.25418 0.19767,0.16957 0.29651,0.39551 0.29653,0.6778 l 0,34.65256 12.62404,0 c 0.45184,9e-5 0.80486,0.11306 1.05907,0.3389 0.25414,0.22603 0.38122,0.4802 0.38126,0.76253 -4e-5,0.33899 -0.113,0.59316 -0.3389,0.76253 -0.28245,0.22602 -0.64959,0.33898 -1.10143,0.3389 l -12.62404,0 0,78.87906 c -2e-5,2.42879 0.33888,4.09505 1.01671,4.99878 0.45184,0.67781 1.12964,1.01671 2.0334,1.0167 1.92041,1e-5 3.61491,-1.10142 5.0835,-3.30428 2.20282,-3.27602 3.30425,-8.30304 3.30428,-15.08106 l 0,-12.36987 c -3e-5,-0.79073 0.16942,-1.41205 0.50835,-1.86395 0.2259,-0.28238 0.50832,-0.42359 0.84725,-0.42363 0.33887,4e-5 0.62129,0.14125 0.84725,0.42363 0.33887,0.4519 0.50832,1.07322 0.50836,1.86395 l 0,9.40449 c -4e-5,9.54571 -1.51097,16.29547 -4.5328,20.2493 -3.02189,3.95384 -6.79215,5.93075 -11.3108,5.93075 -4.23627,0 -7.34285,-1.15791 -9.31976,-3.47373 -2.71121,-3.10658 -4.06681,-7.51228 -4.0668,-13.21711 z"
         style="fill:#333333;font-family:Onyx;-inkscape-font-specification:Onyx"
         id="path3271"
         inkscape:connector-curvature="0" />
      <path
         d="m 230.36594,431.58338 0,31.51773 c -1e-5,4.91407 0.56482,8.16186 1.69451,9.74339 0.84723,1.18615 2.23107,1.77923 4.15153,1.77922 3.16304,1e-5 5.98721,-1.77922 8.47251,-5.33768 4.12325,-5.98722 6.3261,-14.14907 6.60855,-24.48555 0.0565,-3.38897 0.21178,-5.3094 0.46599,-5.76131 0.25414,-0.45183 0.60716,-0.67776 1.05907,-0.6778 0.39534,4e-5 0.706,0.16949 0.93197,0.50835 0.28238,0.45191 0.42359,1.52509 0.42363,3.21956 -4e-5,10.05407 -1.76515,18.51245 -5.29532,25.37516 -3.53025,6.86274 -8.28897,10.2941 -14.27618,10.2941 -5.59187,0 -10.22351,-2.64059 -13.89492,-7.92179 -3.67142,-5.28119 -5.50713,-16.73319 -5.50713,-34.35603 l 0,-12.45459 c 0,-13.49946 2.48527,-23.75119 7.45581,-30.75521 3.55844,-4.97045 7.85118,-7.45572 12.87822,-7.45581 5.98721,9e-5 10.60472,3.1914 13.85255,9.57394 3.24775,6.3827 4.87165,14.14916 4.87169,23.2994 l 0,13.89492 z m 8.81141,-2.28758 0,-36.09289 c -2e-5,-2.31574 -0.45189,-4.06672 -1.3556,-5.25296 -0.62134,-0.84716 -1.55331,-1.27079 -2.79592,-1.27088 -1.24266,9e-5 -2.32996,0.53669 -3.26192,1.60978 -0.932,1.07327 -1.39798,2.71129 -1.39797,4.91406 l 0,36.09289 z"
         style="fill:#333333;font-family:Onyx;-inkscape-font-specification:Onyx"
         id="path3273"
         inkscape:connector-curvature="0" />
      <path
         d="m 264.08654,388.03468 -3.55845,0 c -0.3389,8e-5 -0.6072,-0.0988 -0.80489,-0.29654 -0.19769,-0.19761 -0.29654,-0.4659 -0.29654,-0.80489 0,-0.33881 0.0988,-0.60711 0.29654,-0.80489 0.19769,-0.1976 0.46599,-0.29645 0.80489,-0.29654 l 18.47007,0 0,11.18372 c 1.92041,-5.08343 3.71376,-8.3877 5.38004,-9.91284 1.66624,-1.52496 3.43134,-2.28749 5.29532,-2.28758 2.54172,9e-5 4.8293,1.27097 6.86273,3.81263 2.5982,3.27612 3.89732,7.39941 3.89736,12.36987 -4e-5,4.23632 -0.86141,7.44175 -2.58412,9.61629 -1.72278,2.17468 -3.62909,3.26198 -5.71894,3.26192 -1.69453,6e-5 -3.10662,-0.73422 -4.23626,-2.20285 -1.52508,-1.97685 -2.2876,-4.80102 -2.28757,-8.47251 -3e-5,-3.61486 1.07315,-7.08859 3.21955,-10.42119 1.07315,-1.69442 1.60975,-2.85232 1.60978,-3.47373 -3e-5,-0.50826 -0.19773,-0.94601 -0.59308,-1.31324 -0.39541,-0.36705 -0.87552,-0.55062 -1.44032,-0.55071 -1.07322,9e-5 -2.08992,0.50844 -3.05011,1.52505 -1.63804,1.69459 -3.10661,4.75881 -4.4057,9.19267 -1.29914,4.43403 -1.9487,9.47516 -1.94868,15.12343 l 0,61.25625 4.32098,0 c 0.39536,0 0.70602,0.11297 0.93198,0.3389 0.2259,0.22593 0.33887,0.48011 0.3389,0.76253 l -0.25418,0.76252 c -0.33893,0.22594 -0.67783,0.3389 -1.0167,0.3389 l -22.79105,0 c -0.28242,0 -0.52247,-0.0988 -0.72016,-0.29654 -0.1977,-0.19769 -0.29654,-0.46598 -0.29654,-0.80488 0,-0.3389 0.0988,-0.6072 0.29654,-0.80489 0.19769,-0.19769 0.43774,-0.29654 0.72016,-0.29654 l 3.55845,0 z"
         style="fill:#333333;font-family:Onyx;-inkscape-font-specification:Onyx"
         id="path3275"
         inkscape:connector-curvature="0" />
      <path
         d="m 307.71996,388.03468 -3.64318,0 -0.50835,-0.16945 c -0.16945,-0.22585 -0.25418,-0.53651 -0.25418,-0.93198 0,-0.33881 0.25418,-0.70595 0.76253,-1.10143 l 18.55479,0 0,6.94746 c 1.9769,-2.99353 3.92558,-5.0693 5.84604,-6.22729 1.9204,-1.15782 4.23622,-1.73678 6.94745,-1.73687 3.6149,9e-5 6.1849,0.90383 7.70999,2.7112 2.20281,2.59833 3.30423,6.32623 3.30428,11.18372 l 0,75.82896 2.79592,0 c 0.33886,0 0.60715,0.0989 0.80489,0.29654 0.19765,0.19769 0.29649,0.46599 0.29654,0.80489 -5e-5,0.3389 -0.0989,0.60719 -0.29654,0.80488 -0.19774,0.1977 -0.46603,0.29654 -0.80489,0.29654 l -19.57149,0 c -0.28245,0 -0.5225,-0.0988 -0.72017,-0.29654 -0.19771,-0.19769 -0.29656,-0.46598 -0.29653,-0.80488 -3e-5,-0.3389 0.0988,-0.6072 0.29653,-0.80489 0.19767,-0.19769 0.43772,-0.29654 0.72017,-0.29654 l 1.6945,0 0,-79.30269 c -3e-5,-1.7509 -0.22596,-2.92293 -0.6778,-3.51609 -0.4519,-0.59299 -1.07321,-0.88953 -1.86395,-0.88962 -1.4686,9e-5 -2.73947,0.8191 -3.81263,2.45703 -1.58156,2.42887 -2.37233,6.41094 -2.37231,11.94624 l 0,69.30513 2.11813,0 c 0.56481,0.39538 0.84723,0.76253 0.84725,1.10143 -2e-5,0.3389 -0.28244,0.70604 -0.84725,1.10142 l -20.67292,0 c -0.56484,-0.39538 -0.84725,-0.76252 -0.84725,-1.10142 0,-0.3389 0.28241,-0.70605 0.84725,-1.10143 l 3.64318,0 z"
         style="fill:#333333;font-family:Onyx;-inkscape-font-specification:Onyx"
         id="path3277"
         inkscape:connector-curvature="0" />
      <path
         d="m 360.75789,394.81268 c 0.79076,-0.28233 1.55328,-0.49414 2.28758,-0.63544 0.73427,-0.14112 1.41207,-0.21173 2.0334,-0.21181 2.25932,8e-5 4.16563,0.81909 5.71894,2.45703 1.55328,1.6381 2.32992,3.78446 2.32994,6.43911 -2e-5,2.71127 -0.79079,4.88588 -2.3723,6.52383 -1.58155,1.63808 -3.69968,2.45709 -6.35438,2.45703 -2.65473,6e-5 -4.74462,-0.83307 -6.26966,-2.49939 -1.52506,-1.66619 -2.28758,-4.13734 -2.28758,-7.41345 0,-4.85749 1.83571,-8.92429 5.50713,-12.20041 3.67141,-3.27595 8.89612,-4.91397 15.67415,-4.91406 6.10017,9e-5 10.49175,1.14388 13.17475,3.43137 2.68292,2.28766 4.0244,5.21067 4.02444,8.76905 l 0,73.20248 c -4e-5,0.84726 0.22589,1.53918 0.6778,2.07576 0.45183,0.5366 0.93193,0.8049 1.44033,0.80489 1.41204,10e-6 2.85236,-1.4968 4.32098,-4.49043 0.39533,-0.90372 0.79072,-1.35559 1.18615,-1.3556 l 1.0167,0.93198 c -5e-5,1.97692 -1.27092,4.06681 -3.81263,6.26965 -2.54179,2.20286 -5.5919,3.30428 -9.15031,3.30428 -3.05014,0 -5.40832,-0.70604 -7.07454,-2.11812 -1.66629,-1.41209 -2.92305,-3.89735 -3.77027,-7.45581 -2.59826,3.84087 -4.87172,6.39674 -6.82037,7.66762 -1.9487,1.27087 -4.25039,1.90631 -6.9051,1.90631 -3.21956,0 -5.69071,-0.83313 -7.41344,-2.49939 -1.72275,-1.66625 -2.58412,-3.85498 -2.58412,-6.56619 l 0,-31.94136 c 0,-3.44545 0.7484,-5.9872 2.24522,-7.62526 1.4968,-1.63797 5.91662,-3.67137 13.25947,-6.10021 3.27602,-1.12961 6.01546,-2.25928 8.21834,-3.389 l 0,-24.40083 c -3e-5,-2.54167 -0.66371,-4.51859 -1.99104,-5.93076 -1.32738,-1.41199 -3.06425,-2.11804 -5.21059,-2.11813 -4.97056,9e-5 -8.67022,2.54184 -11.09899,7.62526 z m 18.30062,27.45093 c -3.61496,1.41214 -5.9449,2.82423 -6.98982,4.23626 -1.04496,1.41213 -1.56743,3.67147 -1.56742,6.77801 l 0,35.83871 c -10e-6,1.18616 0.2118,2.06165 0.63544,2.62648 0.42361,0.56484 0.94608,0.84726 1.56742,0.84725 0.90371,10e-6 1.92041,-0.96021 3.0501,-2.88065 2.20283,-3.55844 3.30425,-7.85118 3.30428,-12.87822 z"
         style="fill:#333333;font-family:Onyx;-inkscape-font-specification:Onyx"
         id="path3279"
         inkscape:connector-curvature="0" />
      <path
         d="m 409.55952,388.03468 -3.98208,0 c -0.50835,8e-5 -0.90373,-0.11288 -1.18615,-0.3389 -0.28242,-0.22585 -0.42363,-0.50827 -0.42362,-0.84726 -10e-6,-0.39529 0.25417,-0.81891 0.76252,-1.27087 4.7446,-3.67133 8.19008,-7.32862 10.33646,-10.9719 2.14636,-3.64308 4.03855,-7.89345 5.67659,-12.75113 1.18613,-3.50185 1.80744,-5.93064 1.86395,-7.28636 l 0.16945,-3.89735 c 0.16943,-0.28229 0.4236,-0.4235 0.76252,-0.42363 0.33888,1.3e-4 0.60718,0.0849 0.80489,0.25418 0.19767,0.16957 0.29652,0.39551 0.29654,0.6778 l 0,34.65256 12.62404,0 c 0.45183,9e-5 0.80485,0.11306 1.05906,0.3389 0.25414,0.22603 0.38123,0.4802 0.38127,0.76253 -4e-5,0.33899 -0.11301,0.59316 -0.3389,0.76253 -0.28246,0.22602 -0.6496,0.33898 -1.10143,0.3389 l -12.62404,0 0,78.87906 c -2e-5,2.42879 0.33888,4.09505 1.0167,4.99878 0.45184,0.67781 1.12964,1.01671 2.0334,1.0167 1.92041,1e-5 3.61491,-1.10142 5.08351,-3.30428 2.20282,-3.27602 3.30424,-8.30304 3.30428,-15.08106 l 0,-12.36987 c -4e-5,-0.79073 0.16941,-1.41205 0.50835,-1.86395 0.2259,-0.28238 0.50831,-0.42359 0.84725,-0.42363 0.33886,4e-5 0.62128,0.14125 0.84725,0.42363 0.33886,0.4519 0.50831,1.07322 0.50835,1.86395 l 0,9.40449 c -4e-5,9.54571 -1.51096,16.29547 -4.53279,20.2493 -3.02189,3.95384 -6.79216,5.93075 -11.3108,5.93075 -4.23627,0 -7.34286,-1.15791 -9.31976,-3.47373 -2.71121,-3.10658 -4.06681,-7.51228 -4.06681,-13.21711 z"
         style="fill:#333333;font-family:Onyx;-inkscape-font-specification:Onyx"
         id="path3281"
         inkscape:connector-curvature="0" />
      <path
         d="m 445.31351,357.19474 c 0,-2.42866 0.87549,-4.51855 2.62648,-6.26966 1.75098,-1.75085 3.81262,-2.62635 6.18493,-2.62647 2.54174,1.2e-4 4.68811,0.86149 6.43911,2.58411 1.75096,1.72287 2.62645,3.82687 2.62648,6.31202 -3e-5,2.48539 -0.87552,4.60351 -2.62648,6.35438 -1.751,1.7511 -3.86913,2.62659 -6.35438,2.62648 -2.4288,1.1e-4 -4.51868,-0.87538 -6.26966,-2.62648 -1.75099,-1.75087 -2.62648,-3.86899 -2.62648,-6.35438 z m 1.27088,30.83994 -3.30428,0 c -0.3389,8e-5 -0.6072,-0.0988 -0.80489,-0.29654 -0.19769,-0.19761 -0.29654,-0.4659 -0.29654,-0.80489 0,-0.33881 0.0989,-0.60711 0.29654,-0.80489 0.19769,-0.1976 0.46599,-0.29645 0.80489,-0.29654 l 18.38534,0 0,88.70718 3.64318,0 c 0.33888,0 0.60718,0.0989 0.80489,0.29654 0.19767,0.19769 0.29651,0.49423 0.29654,0.88961 -3e-5,0.28242 -0.0989,0.52247 -0.29654,0.72016 -0.19771,0.1977 -0.46601,0.29654 -0.80489,0.29654 l -22.02852,0 c -0.56484,-0.39538 -0.84725,-0.76252 -0.84725,-1.10142 0,-0.39539 0.28241,-0.76253 0.84725,-1.10143 l 3.30428,0 z"
         style="fill:#333333;font-family:Onyx;-inkscape-font-specification:Onyx"
         id="path3283"
         inkscape:connector-curvature="0" />
      <path
         d="m 472.76447,437.51413 0,-16.60612 c -1e-5,-13.27353 2.23108,-23.0169 6.69328,-29.23016 3.27602,-4.57506 7.45579,-6.86264 12.53931,-6.86273 6.3826,9e-5 11.28253,3.36085 14.69981,10.08229 3.4172,6.7216 5.12582,15.61772 5.12587,26.6884 l 0,18.38535 c -5e-5,14.40329 -2.2029,24.73974 -6.60856,31.00939 -3.16311,4.51867 -7.37111,6.778 -12.62404,6.778 -3.05013,0 -5.83193,-0.79076 -8.34542,-2.3723 -2.51353,-1.58153 -4.78698,-4.43394 -6.82037,-8.55723 -2.03341,-4.12328 -3.31841,-9.60216 -3.855,-16.43667 -0.53659,-6.83446 -0.80489,-11.1272 -0.80488,-12.87822 z m 23.89247,-41.76947 c -2e-5,-3.16299 -0.46601,-5.37996 -1.39796,-6.65092 -0.932,-1.27079 -2.01931,-1.90623 -3.26192,-1.90632 -1.0732,9e-5 -2.03342,0.52256 -2.88065,1.56742 -0.84727,1.04503 -1.2709,2.64068 -1.27088,4.78697 l 0,71.16908 c -2e-5,4.46219 0.50833,7.48405 1.52506,9.06558 0.79074,1.12967 1.86392,1.69451 3.21955,1.69451 1.29909,0 2.30167,-0.49423 3.00774,-1.48269 0.70601,-0.98846 1.05904,-3.12071 1.05906,-6.39675 z"
         style="fill:#333333;font-family:Onyx;-inkscape-font-specification:Onyx"
         id="path3285"
         inkscape:connector-curvature="0" />
      <path
         d="m 521.90502,388.03468 -3.64318,0 -0.50835,-0.16945 c -0.16946,-0.22585 -0.25418,-0.53651 -0.25418,-0.93198 0,-0.33881 0.25417,-0.70595 0.76253,-1.10143 l 18.55479,0 0,6.94746 c 1.9769,-2.99353 3.92557,-5.0693 5.84603,-6.22729 1.92041,-1.15782 4.23623,-1.73678 6.94746,-1.73687 3.6149,9e-5 6.18489,0.90383 7.70999,2.7112 2.20281,2.59833 3.30423,6.32623 3.30428,11.18372 l 0,75.82896 2.79592,0 c 0.33886,0 0.60715,0.0989 0.80489,0.29654 0.19765,0.19769 0.29649,0.46599 0.29654,0.80489 -5e-5,0.3389 -0.0989,0.60719 -0.29654,0.80488 -0.19774,0.1977 -0.46603,0.29654 -0.80489,0.29654 l -19.57149,0 c -0.28245,0 -0.5225,-0.0988 -0.72017,-0.29654 -0.19772,-0.19769 -0.29656,-0.46598 -0.29654,-0.80488 -2e-5,-0.3389 0.0988,-0.6072 0.29654,-0.80489 0.19767,-0.19769 0.43772,-0.29654 0.72017,-0.29654 l 1.6945,0 0,-79.30269 c -3e-5,-1.7509 -0.22597,-2.92293 -0.6778,-3.51609 -0.4519,-0.59299 -1.07322,-0.88953 -1.86396,-0.88962 -1.46859,9e-5 -2.73946,0.8191 -3.81262,2.45703 -1.58156,2.42887 -2.37233,6.41094 -2.37231,11.94624 l 0,69.30513 2.11813,0 c 0.56481,0.39538 0.84723,0.76253 0.84725,1.10143 -2e-5,0.3389 -0.28244,0.70604 -0.84725,1.10142 l -20.67292,0 c -0.56484,-0.39538 -0.84726,-0.76252 -0.84725,-1.10142 -10e-6,-0.3389 0.28241,-0.70605 0.84725,-1.10143 l 3.64318,0 z"
         style="fill:#333333;font-family:Onyx;-inkscape-font-specification:Onyx"
         id="path3287"
         inkscape:connector-curvature="0" />
      <path
         d="m 574.94292,394.81268 c 0.79075,-0.28233 1.55328,-0.49414 2.28757,-0.63544 0.73428,-0.14112 1.41208,-0.21173 2.03341,-0.21181 2.25932,8e-5 4.16563,0.81909 5.71894,2.45703 1.55327,1.6381 2.32992,3.78446 2.32994,6.43911 -2e-5,2.71127 -0.79079,4.88588 -2.3723,6.52383 -1.58155,1.63808 -3.69968,2.45709 -6.35439,2.45703 -2.65472,6e-5 -4.74461,-0.83307 -6.26965,-2.49939 -1.52506,-1.66619 -2.28758,-4.13734 -2.28758,-7.41345 0,-4.85749 1.83571,-8.92429 5.50713,-12.20041 3.67141,-3.27595 8.89612,-4.91397 15.67414,-4.91406 6.10018,9e-5 10.49176,1.14388 13.17476,3.43137 2.68292,2.28766 4.0244,5.21067 4.02444,8.76905 l 0,73.20248 c -4e-5,0.84726 0.22589,1.53918 0.6778,2.07576 0.45182,0.5366 0.93193,0.8049 1.44033,0.80489 1.41204,10e-6 2.85236,-1.4968 4.32098,-4.49043 0.39533,-0.90372 0.79072,-1.35559 1.18615,-1.3556 l 1.0167,0.93198 c -5e-5,1.97692 -1.27093,4.06681 -3.81263,6.26965 -2.5418,2.20286 -5.5919,3.30428 -9.15031,3.30428 -3.05014,0 -5.40832,-0.70604 -7.07455,-2.11812 -1.66628,-1.41209 -2.92304,-3.89735 -3.77026,-7.45581 -2.59826,3.84087 -4.87172,6.39674 -6.82037,7.66762 -1.9487,1.27087 -4.25039,1.90631 -6.9051,1.90631 -3.21956,0 -5.69071,-0.83313 -7.41345,-2.49939 -1.72274,-1.66625 -2.58411,-3.85498 -2.58411,-6.56619 l 0,-31.94136 c 0,-3.44545 0.7484,-5.9872 2.24521,-7.62526 1.49681,-1.63797 5.91663,-3.67137 13.25948,-6.10021 3.27602,-1.12961 6.01546,-2.25928 8.21834,-3.389 l 0,-24.40083 c -3e-5,-2.54167 -0.66371,-4.51859 -1.99104,-5.93076 -1.32739,-1.41199 -3.06425,-2.11804 -5.2106,-2.11813 -4.97055,9e-5 -8.67021,2.54184 -11.09898,7.62526 z m 18.30062,27.45093 c -3.61496,1.41214 -5.9449,2.82423 -6.98982,4.23626 -1.04496,1.41213 -1.56744,3.67147 -1.56742,6.77801 l 0,35.83871 c -2e-5,1.18616 0.2118,2.06165 0.63544,2.62648 0.42361,0.56484 0.94608,0.84726 1.56741,0.84725 0.90372,10e-6 1.92042,-0.96021 3.05011,-2.88065 2.20283,-3.55844 3.30425,-7.85118 3.30428,-12.87822 z"
         style="fill:#333333;font-family:Onyx;-inkscape-font-specification:Onyx"
         id="path3289"
         inkscape:connector-curvature="0" />
      <path
         d="m 637.80895,349.31531 0,125.22369 3.30428,0 c 0.28239,0 0.52244,0.0989 0.72016,0.29654 0.19767,0.19769 0.29651,0.46599 0.29654,0.80489 -3e-5,0.3389 -0.0989,0.60719 -0.29654,0.80488 -0.19772,0.1977 -0.43777,0.29654 -0.72016,0.29654 l -22.11325,0 c -0.28242,0 -0.52248,-0.0988 -0.72017,-0.29654 -0.19769,-0.19769 -0.29654,-0.46598 -0.29653,-0.80488 -1e-5,-0.3389 0.0988,-0.6072 0.29653,-0.80489 0.19769,-0.19769 0.43775,-0.29654 0.72017,-0.29654 l 3.55845,0 0,-123.10557 -3.55845,0 c -0.33891,1.3e-4 -0.62132,-0.0987 -0.84725,-0.29653 -0.22594,-0.19757 -0.33891,-0.43762 -0.33891,-0.72017 0,-0.33877 0.11297,-0.59295 0.33891,-0.76252 0.22593,-0.22581 0.50834,-0.33878 0.84725,-0.3389 z"
         style="fill:#333333;font-family:Onyx;-inkscape-font-specification:Onyx"
         id="path3291"
         inkscape:connector-curvature="0" />
    </g>
    <g
       style="font-size:173.51699829px;font-style:normal;font-weight:normal;line-height:125%;letter-spacing:0px;word-spacing:0px;fill:#333333;fill-opacity:1;stroke:none;font-family:Sans"
       id="text3117">
      <path
         d="m 341.11444,607.97725 0,-123.02084 -5.33768,0 c -0.39539,1.3e-4 -0.69192,-0.0987 -0.88962,-0.29653 -0.19769,-0.19757 -0.29653,-0.46587 -0.29653,-0.80489 0,-0.28229 0.0988,-0.52235 0.29653,-0.72017 0.1977,-0.19756 0.49423,-0.29641 0.88962,-0.29653 l 21.9438,0 c 6.72149,1.2e-4 12.20038,1.52517 16.43667,4.57515 4.23621,3.05022 7.34279,7.93603 9.31976,14.65744 2.59818,8.98096 3.8973,18.55489 3.89735,28.72181 l 0,31.43301 c -5e-5,10.56243 -1.27093,20.10812 -3.81263,28.63708 -1.46861,4.80111 -3.33256,8.54313 -5.59185,11.22608 -2.25938,2.68297 -4.99882,4.71637 -8.21834,6.10021 -3.21958,1.38384 -7.2299,2.07576 -12.03096,2.07576 l -21.9438,0 c -0.39539,0 -0.69192,-0.0988 -0.88962,-0.29654 -0.19769,-0.19769 -0.29653,-0.46598 -0.29653,-0.80488 0,-0.39539 0.0988,-0.69192 0.29653,-0.88962 0.1977,-0.19769 0.49423,-0.29653 0.88962,-0.29654 z m 17.53809,0 1.94868,0 c 3.44546,10e-6 5.70479,-0.60719 6.77801,-1.82159 1.07315,-1.21438 1.60974,-4.33509 1.60978,-9.36212 l 0,-102.43264 c -4e-5,-3.6713 -0.52251,-6.15657 -1.56742,-7.45581 -1.04497,-1.29899 -2.64063,-1.94855 -4.78697,-1.94868 l -3.98208,0 z"
         style="fill:#333333;font-family:Onyx;-inkscape-font-specification:Onyx"
         id="path3254"
         inkscape:connector-curvature="0" />
      <path
         d="m 395.50795,490.71772 c 0,-2.42866 0.87549,-4.51855 2.62648,-6.26966 1.75097,-1.75086 3.81262,-2.62635 6.18493,-2.62648 2.54174,1.3e-4 4.6881,0.8615 6.43911,2.58412 1.75096,1.72287 2.62645,3.82687 2.62648,6.31202 -3e-5,2.48539 -0.87552,4.60351 -2.62648,6.35438 -1.75101,1.7511 -3.86913,2.62659 -6.35439,2.62648 -2.42879,1.1e-4 -4.51868,-0.87538 -6.26965,-2.62648 -1.75099,-1.75087 -2.62648,-3.86899 -2.62648,-6.35438 z m 1.27088,30.83994 -3.30428,0 c -0.3389,8e-5 -0.6072,-0.0988 -0.80489,-0.29654 -0.19769,-0.19761 -0.29654,-0.4659 -0.29654,-0.80489 0,-0.33881 0.0989,-0.60711 0.29654,-0.80489 0.19769,-0.1976 0.46599,-0.29645 0.80489,-0.29654 l 18.38534,0 0,88.70718 3.64318,0 c 0.33888,0 0.60717,0.0989 0.80489,0.29654 0.19767,0.19769 0.29651,0.49423 0.29654,0.88961 -3e-5,0.28242 -0.0989,0.52247 -0.29654,0.72016 -0.19772,0.1977 -0.46601,0.29654 -0.80489,0.29654 l -22.02852,0 c -0.56484,-0.39538 -0.84726,-0.76252 -0.84725,-1.10142 -10e-6,-0.39539 0.28241,-0.76253 0.84725,-1.10143 l 3.30428,0 z"
         style="fill:#333333;font-family:Onyx;-inkscape-font-specification:Onyx"
         id="path3256"
         inkscape:connector-curvature="0" />
      <path
         d="m 436.17599,591.54059 c -3.4455,-3.21954 -5.95901,-7.03216 -7.54053,-11.43789 -2.20286,-6.21314 -3.30429,-14.26202 -3.30428,-24.14666 -1e-5,-14.12078 2.25933,-24.34426 6.77801,-30.67048 3.27602,-4.63155 7.56875,-6.94737 12.87821,-6.94746 3.38898,9e-5 6.46732,1.18624 9.23504,3.55846 1.29908,-2.65463 2.73941,-4.64567 4.32098,-5.97312 1.58149,-1.32727 3.30424,-1.99095 5.16823,-1.99104 1.97687,9e-5 3.57253,0.66377 4.78697,1.99104 1.21434,1.32745 1.82154,3.20552 1.82159,5.63422 -5e-5,2.08997 -0.42368,3.65738 -1.27088,4.70224 -0.8473,1.04502 -1.80752,1.56749 -2.88065,1.56741 -1.1862,8e-5 -2.14642,-0.40942 -2.88066,-1.22851 -0.73432,-0.81893 -1.10146,-2.0192 -1.10142,-3.60082 l 0,-0.93197 c 0.0564,-0.50827 0.0847,-0.93189 0.0847,-1.27088 -4e-5,-0.96013 -0.15537,-1.60969 -0.46598,-1.94868 -0.31071,-0.33881 -0.74845,-0.50826 -1.31324,-0.50835 -0.79081,9e-5 -1.58158,0.45196 -2.37231,1.3556 -0.7908,0.90383 -1.55333,2.28767 -2.28757,4.15153 5.36588,6.83457 8.04884,17.93355 8.04888,33.29697 -4e-5,13.3866 -2.28762,23.29943 -6.86273,29.7385 -3.38904,4.74463 -7.48408,7.11693 -12.28514,7.11691 -0.73431,2e-5 -1.66629,-0.0282 -2.79593,-0.0847 -0.67782,-0.0565 -2.45705,-0.0847 -5.33768,-0.0847 -3.4455,2e-5 -5.88841,0.50837 -7.32872,1.52505 -1.44034,1.01672 -2.1605,2.00518 -2.16049,2.96538 -10e-6,0.90375 0.39537,1.63803 1.18615,2.20286 1.12966,0.79077 2.90888,1.18616 5.33768,1.18615 l 13.47129,0 c 6.60852,1e-5 11.42373,1.49681 14.44563,4.49043 3.02182,2.99362 4.53275,7.59701 4.53279,13.81019 -4e-5,6.77799 -2.0052,12.10154 -6.01548,15.97068 -4.01036,3.86908 -9.60221,5.80364 -16.77557,5.80367 -7.22989,-3e-5 -12.70877,-1.51096 -16.43667,-4.5328 -3.72791,-3.02188 -5.59186,-6.48149 -5.59185,-10.37882 -1e-5,-2.4288 0.59307,-4.70225 1.77922,-6.82037 1.18615,-2.11813 2.93713,-4.08093 5.25296,-5.88839 -1.80748,-1.18616 -3.1772,-2.61236 -4.10917,-4.27862 -0.93198,-1.66626 -1.39797,-3.57257 -1.39796,-5.71895 -10e-6,-3.72789 0.98845,-6.59442 2.96538,-8.59959 1.97691,-2.00515 5.45063,-3.34663 10.42118,-4.02444 z m 12.45459,-64.64525 c -3e-5,-2.71112 -0.35305,-4.51859 -1.05906,-5.42241 -0.70607,-0.90364 -1.70865,-1.35551 -3.00774,-1.3556 -1.24266,9e-5 -2.25936,0.49432 -3.05011,1.48269 -0.79078,0.98854 -1.18617,2.75365 -1.18615,5.29532 l 0,56.34219 c -2e-5,3.33254 0.50833,5.70484 1.52506,7.1169 0.73426,1.01672 1.72271,1.52507 2.96537,1.52506 1.12964,10e-6 2.0475,-0.45185 2.75357,-1.35561 0.70601,-0.90371 1.05903,-2.48524 1.05906,-4.7446 z m -18.63952,88.53772 c -1.52506,1.46856 -2.66885,2.96537 -3.43136,4.49043 -0.76254,1.52504 -1.1438,3.05009 -1.14379,4.57516 -10e-6,2.93712 1.60977,5.69068 4.82933,8.26069 3.21954,2.56997 7.82293,3.85497 13.81019,3.855 6.10017,-3e-5 11.07071,-1.49684 14.91161,-4.49043 2.88062,-2.37233 4.32094,-5.14001 4.32098,-8.30306 -4e-5,-2.37232 -0.79081,-4.1233 -2.3723,-5.25296 -2.14641,-1.46857 -6.46738,-2.20286 -12.96294,-2.20285 l -3.47373,0 c -5.64836,-10e-6 -10.47768,-0.31067 -14.48799,-0.93198 z"
         style="fill:#333333;font-family:Onyx;-inkscape-font-specification:Onyx"
         id="path3258"
         inkscape:connector-curvature="0" />
      <path
         d="m 488.95973,565.10635 0,31.51774 c -10e-6,4.91407 0.56482,8.16186 1.6945,9.74339 0.84724,1.18615 2.23108,1.77923 4.15153,1.77922 3.16305,10e-6 5.98722,-1.77922 8.47251,-5.33768 4.12326,-5.98722 6.32611,-14.14907 6.60856,-24.48555 0.0565,-3.38897 0.21178,-5.3094 0.46599,-5.76131 0.25414,-0.45183 0.60716,-0.67776 1.05906,-0.6778 0.39535,4e-5 0.70601,0.16949 0.93198,0.50835 0.28238,0.45191 0.42358,1.52509 0.42363,3.21956 -5e-5,10.05407 -1.76515,18.51245 -5.29532,25.37516 -3.53025,6.86274 -8.28897,10.2941 -14.27618,10.2941 -5.59187,0 -10.22351,-2.64059 -13.89492,-7.92179 -3.67142,-5.28119 -5.50713,-16.73319 -5.50713,-34.35603 l 0,-12.45459 c 0,-13.49946 2.48527,-23.75119 7.45581,-30.75521 3.55844,-4.97045 7.85117,-7.45572 12.87821,-7.45581 5.98722,9e-5 10.60473,3.1914 13.85256,9.57394 3.24775,6.3827 4.87165,14.14916 4.87169,23.2994 l 0,13.89491 z m 8.81141,-2.28757 0,-36.09289 c -2e-5,-2.31574 -0.45189,-4.06672 -1.3556,-5.25296 -0.62134,-0.84716 -1.55332,-1.27079 -2.79593,-1.27088 -1.24265,9e-5 -2.32996,0.53669 -3.26191,1.60978 -0.932,1.07327 -1.39798,2.71129 -1.39797,4.91406 l 0,36.09289 z"
         style="fill:#333333;font-family:Onyx;-inkscape-font-specification:Onyx"
         id="path3260"
         inkscape:connector-curvature="0" />
      <path
         d="m 527.17075,604.58825 c -1.0732,0.84726 -2.37232,2.31582 -3.89736,4.40571 -1.12967,1.52505 -1.97692,2.28757 -2.54175,2.28757 -0.22594,0 -0.42363,-0.0847 -0.59308,-0.25417 -0.16945,-0.16945 -0.25418,-0.42363 -0.25417,-0.76253 l 0,-39.73607 c -1e-5,-0.39534 0.0988,-0.69188 0.29654,-0.88961 0.19768,-0.19765 0.43774,-0.2965 0.72016,-0.29654 0.33889,4e-5 0.59307,0.11301 0.76252,0.3389 0.16945,0.22597 0.31066,1.12971 0.42363,2.7112 0.73428,10.95781 2.59823,20.10811 5.59186,27.45093 2.14635,5.30945 4.6881,7.96417 7.62526,7.96416 1.46854,10e-6 2.7959,-0.72016 3.98207,-2.16049 1.18613,-1.44032 1.77921,-3.51608 1.77923,-6.22729 -2e-5,-3.10657 -0.6637,-6.90508 -1.99104,-11.39553 -1.32738,-4.4904 -4.1233,-11.43785 -8.38778,-20.84237 -4.26451,-9.40443 -7.00395,-16.19656 -8.21834,-20.37639 -1.21439,-4.1797 -1.82159,-7.85112 -1.82159,-11.01426 0,-5.19639 1.4262,-9.4044 4.27862,-12.62404 2.8524,-3.21946 6.1708,-4.82924 9.9552,-4.82933 3.38898,9e-5 6.66502,1.55339 9.82811,4.65988 0.84722,-0.56474 2.1181,-1.66617 3.81263,-3.30428 0.96019,-0.84716 1.60974,-1.27078 1.94868,-1.27087 0.2259,9e-5 0.42359,0.0566 0.59307,0.16945 0.16942,0.22602 0.25414,0.4802 0.25418,0.76252 l 0,35.75399 c -4e-5,0.39544 -0.113,0.7061 -0.3389,0.93198 -0.22597,0.22599 -0.48014,0.33895 -0.76253,0.3389 -0.33893,5e-5 -0.59311,-0.14115 -0.76252,-0.42363 -0.16949,-0.28236 -0.3107,-1.12961 -0.42363,-2.54175 -0.73432,-10.44936 -2.31585,-18.92186 -4.7446,-25.41753 -1.75102,-4.51858 -4.03859,-6.77792 -6.86274,-6.77801 -1.58155,9e-5 -2.90891,0.59317 -3.98208,1.77923 -1.0732,1.18624 -1.60979,2.79601 -1.60977,4.82933 -2e-5,5.14007 3.36074,14.43158 10.08228,27.87456 4.51864,8.92442 7.59699,16.04132 9.23504,21.35072 1.63798,5.30947 2.45699,9.99759 2.45703,14.06437 -4e-5,6.1567 -1.58157,11.05663 -4.74461,14.6998 -3.1631,3.64318 -6.83452,5.46477 -11.01426,5.46477 -2.14639,0 -4.02446,-0.49423 -5.63422,-1.48269 -1.60979,-0.98845 -3.29017,-2.72532 -5.04114,-5.21059 z"
         style="fill:#333333;font-family:Onyx;-inkscape-font-specification:Onyx"
         id="path3262"
         inkscape:connector-curvature="0" />
      <path
         d="m 563.77199,521.55766 -3.98208,0 c -0.50835,8e-5 -0.90373,-0.11288 -1.18615,-0.33891 -0.28242,-0.22584 -0.42362,-0.50826 -0.42362,-0.84725 0,-0.39529 0.25417,-0.81891 0.76252,-1.27087 4.7446,-3.67133 8.19009,-7.32863 10.33647,-10.9719 2.14635,-3.64308 4.03854,-7.89345 5.67658,-12.75113 1.18613,-3.50185 1.80745,-5.93064 1.86395,-7.28636 l 0.16945,-3.89735 c 0.16943,-0.28229 0.4236,-0.4235 0.76253,-0.42363 0.33887,1.3e-4 0.60717,0.0849 0.80488,0.25418 0.19767,0.16957 0.29652,0.39551 0.29654,0.6778 l 0,34.65256 12.62404,0 c 0.45183,9e-5 0.80485,0.11306 1.05906,0.3389 0.25414,0.22603 0.38123,0.4802 0.38127,0.76253 -4e-5,0.33899 -0.11301,0.59316 -0.3389,0.76252 -0.28246,0.22603 -0.6496,0.33899 -1.10143,0.33891 l -12.62404,0 0,78.87906 c -2e-5,2.42879 0.33888,4.09505 1.0167,4.99878 0.45185,0.67781 1.12965,1.01671 2.0334,1.0167 1.92041,1e-5 3.61491,-1.10142 5.08351,-3.30428 2.20282,-3.27602 3.30425,-8.30304 3.30428,-15.08106 l 0,-12.36987 c -3e-5,-0.79073 0.16942,-1.41205 0.50835,-1.86395 0.2259,-0.28238 0.50832,-0.42359 0.84725,-0.42363 0.33887,4e-5 0.62128,0.14125 0.84725,0.42363 0.33887,0.4519 0.50832,1.07322 0.50835,1.86395 l 0,9.40449 c -3e-5,9.54571 -1.51096,16.29547 -4.53279,20.2493 -3.02189,3.95383 -6.79215,5.93075 -11.3108,5.93075 -4.23627,0 -7.34286,-1.15791 -9.31976,-3.47373 -2.71121,-3.10658 -4.06681,-7.51228 -4.06681,-13.21711 z"
         style="fill:#333333;font-family:Onyx;-inkscape-font-specification:Onyx"
         id="path3264"
         inkscape:connector-curvature="0" />
    </g>
  </g>
</svg>
