<?xml version="1.0" encoding="UTF-8" standalone="no"?>
<!-- Created with Inkscape (http://www.inkscape.org/) -->

<svg
   xmlns:dc="http://purl.org/dc/elements/1.1/"
   xmlns:cc="http://creativecommons.org/ns#"
   xmlns:rdf="http://www.w3.org/1999/02/22-rdf-syntax-ns#"
   xmlns:svg="http://www.w3.org/2000/svg"
   xmlns="http://www.w3.org/2000/svg"
   xmlns:sodipodi="http://sodipodi.sourceforge.net/DTD/sodipodi-0.dtd"
   xmlns:inkscape="http://www.inkscape.org/namespaces/inkscape"
   width="552.8313"
   height="293.48401"
   id="svg3178"
   version="1.1"
   inkscape:version="0.48.5 r10040"
   sodipodi:docname="DarkText.svg">
  <defs
     id="defs3180" />
  <sodipodi:namedview
     id="base"
     pagecolor="#ffffff"
     bordercolor="#666666"
     borderopacity="1.0"
     inkscape:pageopacity="0.0"
     inkscape:pageshadow="2"
     inkscape:zoom="0.35"
     inkscape:cx="933.36854"
     inkscape:cy="223.70615"
     inkscape:document-units="px"
     inkscape:current-layer="text3117"
     showgrid="false"
     inkscape:window-width="1776"
     inkscape:window-height="937"
     inkscape:window-x="-8"
     inkscape:window-y="-8"
     inkscape:window-maximized="1"
     fit-margin-top="0"
     fit-margin-left="0"
     fit-margin-right="0"
     fit-margin-bottom="0" />
  <metadata
     id="metadata3183">
    <rdf:RDF>
      <cc:Work
         rdf:about="">
        <dc:format>image/svg+xml</dc:format>
        <dc:type
           rdf:resource="http://purl.org/dc/dcmitype/StillImage" />
        <dc:title></dc:title>
      </cc:Work>
    </rdf:RDF>
  </metadata>
  <g
     inkscape:label="Layer 1"
     inkscape:groupmode="layer"
     id="layer1"
     transform="translate(-89.298661,-348.29861)">
    <g
       style="font-size:173.51699829px;font-style:normal;font-weight:normal;line-height:125%;letter-spacing:0px;word-spacing:0px;fill:#333333;fill-opacity:1;stroke:none;font-family:Sans"
       id="text3117">
      <g
         style="font-size:172.30729675px;line-height:125%;font-family:Sans"
         id="text3001">
        <path
           d="m 99.529643,351.80231 -5.048065,0 c -0.28045,1.3e-4 -0.504808,-0.098 -0.673076,-0.29447 -0.168269,-0.19619 -0.252404,-0.43457 -0.252403,-0.71514 -10e-7,-0.33641 0.08413,-0.60284 0.252403,-0.79928 0.168268,-0.19619 0.392626,-0.29434 0.673076,-0.29447 l 27.343682,0 c 0.28042,1.3e-4 0.5188,0.0983 0.71515,0.29447 0.19628,0.19644 0.29444,0.43482 0.29447,0.71514 -3e-5,0.33667 -0.0982,0.60309 -0.29447,0.79928 -0.19635,0.19644 -0.43473,0.2946 -0.71515,0.29447 l -5.04806,0 0,122.24732 5.04806,0 c 0.56087,0.39263 0.84132,0.75721 0.84135,1.09374 -3e-5,0.39263 -0.28048,0.75721 -0.84135,1.09375 l -28.016758,0 c -0.616986,-0.39263 -0.925479,-0.75721 -0.925478,-1.09375 -1e-6,-0.33653 0.308492,-0.70111 0.925478,-1.09374 l 5.721141,0 z"
           style="fill:#f9f9f9;font-family:Onyx;-inkscape-font-specification:Onyx"
           id="path3334" />
        <path
           d="m 131.75313,388.14838 -3.61778,0 -0.50481,-0.16827 c -0.16827,-0.22427 -0.2524,-0.53276 -0.2524,-0.92548 0,-0.33644 0.2524,-0.70103 0.75721,-1.09374 l 18.42544,0 0,6.89902 c 1.96311,-2.97266 3.8982,-5.03396 5.80527,-6.18388 1.90702,-1.14975 4.20669,-1.72467 6.89902,-1.72476 3.5897,9e-5 6.14178,0.89753 7.65624,2.6923 2.18745,2.58021 3.28119,6.28212 3.28124,11.10575 l 0,75.30031 2.77643,0 c 0.33649,0 0.60292,0.0982 0.79928,0.29447 0.19627,0.19631 0.29442,0.46274 0.29447,0.79927 -5e-5,0.33654 -0.0982,0.60297 -0.29447,0.79928 -0.19636,0.19631 -0.46279,0.29447 -0.79928,0.29447 l -19.43505,0 c -0.28047,0 -0.51885,-0.0982 -0.71514,-0.29447 -0.19634,-0.19631 -0.2945,-0.46274 -0.29447,-0.79928 -3e-5,-0.33653 0.0981,-0.60296 0.29447,-0.79927 0.19629,-0.19631 0.43467,-0.29447 0.71514,-0.29447 l 1.68269,0 0,-78.74982 c -3e-5,-1.7387 -0.22439,-2.90256 -0.67307,-3.49158 -0.44875,-0.58886 -1.06574,-0.88333 -1.85096,-0.88341 -1.45836,8e-5 -2.72037,0.81338 -3.78605,2.4399 -1.57053,2.41193 -2.35579,6.36624 -2.35576,11.86295 l 0,68.82196 2.10336,0 c 0.56087,0.39263 0.84132,0.75721 0.84134,1.09374 -2e-5,0.33654 -0.28047,0.70112 -0.84134,1.09375 l -20.5288,0 c -0.5609,-0.39263 -0.84135,-0.75721 -0.84135,-1.09375 0,-0.33653 0.28045,-0.70111 0.84135,-1.09374 l 3.61778,0 z"
           style="fill:#f9f9f9;font-family:Onyx;-inkscape-font-specification:Onyx"
           id="path3336" />
        <path
           d="m 184.42128,388.14838 -3.95432,0 c -0.50481,9e-5 -0.89744,-0.11209 -1.17788,-0.33654 -0.28045,-0.22427 -0.42068,-0.50471 -0.42068,-0.84134 0,-0.39254 0.2524,-0.81321 0.75721,-1.26202 4.71152,-3.64573 8.13299,-7.27753 10.2644,-10.8954 2.13139,-3.61768 4.01039,-7.83842 5.63701,-12.66223 1.17786,-3.47744 1.79485,-5.88929 1.85096,-7.23557 l 0.16826,-3.87018 c 0.16825,-0.28032 0.42066,-0.42055 0.75721,-0.42067 0.33652,1.2e-4 0.60295,0.0843 0.79928,0.2524 0.19629,0.1684 0.29445,0.39275 0.29447,0.67308 l 0,34.41098 12.53603,0 c 0.44868,9e-5 0.79924,0.11227 1.05168,0.33653 0.25237,0.22445 0.37857,0.47686 0.37861,0.75721 -4e-5,0.33663 -0.11222,0.58903 -0.33654,0.75721 -0.28049,0.22445 -0.64507,0.33663 -1.09375,0.33654 l -12.53603,0 0,78.32915 c -2e-5,2.41186 0.33652,4.0665 1.00962,4.96393 0.44869,0.67308 1.12176,1.00962 2.01922,1.00961 1.90702,10e-6 3.58971,-1.09374 5.04807,-3.28124 2.18746,-3.25319 3.28121,-8.24516 3.28124,-14.97593 l 0,-12.28362 c -3e-5,-0.78522 0.16823,-1.40221 0.50481,-1.85096 0.22432,-0.28041 0.50477,-0.42064 0.84134,-0.42067 0.3365,3e-5 0.61695,0.14026 0.84134,0.42067 0.33651,0.44875 0.50477,1.06574 0.50481,1.85096 l 0,9.33892 c -4e-5,9.47916 -1.50043,16.18186 -4.50119,20.10813 -3.00082,3.92627 -6.7448,5.8894 -11.23195,5.8894 -4.20673,0 -7.29166,-1.14983 -9.25478,-3.44951 -2.69231,-3.08492 -4.03846,-7.45991 -4.03845,-13.12497 z"
           style="fill:#f9f9f9;font-family:Onyx;-inkscape-font-specification:Onyx"
           id="path3338" />
        <path
           d="m 232.96684,431.39347 0,31.29801 c -2e-5,4.8798 0.56088,8.10495 1.68269,9.67546 0.84132,1.17788 2.21552,1.76682 4.12258,1.76682 3.141,0 5.94547,-1.76682 8.41345,-5.30047 4.0945,-5.94548 6.28199,-14.05042 6.56248,-24.31485 0.056,-3.36534 0.2103,-5.27238 0.46274,-5.72114 0.25236,-0.44868 0.60292,-0.67303 1.05168,-0.67307 0.39259,4e-5 0.70108,0.16831 0.92548,0.5048 0.28041,0.44876 0.42063,1.51446 0.42067,3.19711 -4e-5,9.98398 -1.75284,18.38339 -5.2584,25.19826 -3.50563,6.81489 -8.23118,10.22233 -14.17665,10.22233 -5.55289,0 -10.15223,-2.62218 -13.79805,-7.86656 -3.64583,-5.24437 -5.46874,-16.61653 -5.46873,-34.11651 l 0,-12.36776 c -1e-5,-13.40535 2.46793,-23.58561 7.40383,-30.5408 3.53363,-4.93579 7.79643,-7.40374 12.78843,-7.40383 5.94547,9e-5 10.53079,3.16915 13.75598,9.50719 3.22511,6.33821 4.83768,14.05052 4.83773,23.13697 l 0,13.79804 z m 8.74998,-2.27162 0,-35.84127 c -3e-5,-2.29959 -0.44874,-4.03836 -1.34615,-5.21633 -0.61701,-0.84126 -1.54249,-1.26193 -2.77644,-1.26202 -1.23399,9e-5 -2.31371,0.53294 -3.23917,1.59855 -0.9255,1.06579 -1.38824,2.69239 -1.38822,4.8798 l 0,35.84127 z"
           style="fill:#f9f9f9;font-family:Onyx;-inkscape-font-specification:Onyx"
           id="path3340" />
        <path
           d="m 266.45233,388.14838 -3.53364,0 c -0.33654,9e-5 -0.60297,-0.0981 -0.79928,-0.29447 -0.19632,-0.19622 -0.29447,-0.46265 -0.29447,-0.79928 0,-0.33644 0.0981,-0.60287 0.29447,-0.79927 0.19631,-0.19623 0.46274,-0.29438 0.79928,-0.29447 l 18.3413,0 0,11.10574 c 1.90702,-5.04798 3.68787,-8.32922 5.34254,-9.84373 1.65461,-1.51433 3.40741,-2.27154 5.2584,-2.27163 2.524,9e-5 4.79562,1.26211 6.81489,3.78605 2.58008,3.25328 3.87014,7.34782 3.87018,12.28363 -4e-5,4.20679 -0.85541,7.38987 -2.5661,9.54926 -1.71077,2.15951 -3.60379,3.23923 -5.67907,3.23917 -1.68273,6e-5 -3.08496,-0.7291 -4.20673,-2.18749 -1.51444,-1.96307 -2.27165,-4.76755 -2.27163,-8.41345 -2e-5,-3.58966 1.06568,-7.03916 3.19711,-10.34853 1.06567,-1.6826 1.59852,-2.83244 1.59856,-3.44951 -4e-5,-0.50472 -0.19635,-0.93942 -0.58894,-1.30409 -0.39266,-0.36449 -0.86942,-0.54678 -1.43029,-0.54687 -1.06573,9e-5 -2.07534,0.5049 -3.02884,1.51442 -1.62662,1.68277 -3.08495,4.72563 -4.37499,9.12858 -1.29008,4.40311 -1.93511,9.40911 -1.93509,15.018 l 0,60.82919 4.29086,0 c 0.3926,0 0.70109,0.11218 0.92547,0.33653 0.22434,0.22436 0.33652,0.47677 0.33654,0.75721 l -0.2524,0.75721 c -0.33656,0.22436 -0.6731,0.33654 -1.00961,0.33654 l -22.63216,0 c -0.28045,0 -0.51883,-0.0982 -0.71515,-0.29447 -0.19631,-0.19631 -0.29447,-0.46274 -0.29447,-0.79928 0,-0.33653 0.0982,-0.60296 0.29447,-0.79927 0.19632,-0.19631 0.4347,-0.29447 0.71515,-0.29447 l 3.53364,0 z"
           style="fill:#f9f9f9;font-family:Onyx;-inkscape-font-specification:Onyx"
           id="path3342" />
        <path
           d="m 309.78156,388.14838 -3.61778,0 -0.50481,-0.16827 c -0.16827,-0.22427 -0.2524,-0.53276 -0.2524,-0.92548 0,-0.33644 0.2524,-0.70103 0.75721,-1.09374 l 18.42544,0 0,6.89902 c 1.96311,-2.97266 3.8982,-5.03396 5.80527,-6.18388 1.90702,-1.14975 4.20669,-1.72467 6.89902,-1.72476 3.5897,9e-5 6.14178,0.89753 7.65624,2.6923 2.18745,2.58021 3.28119,6.28212 3.28124,11.10575 l 0,75.30031 2.77643,0 c 0.33649,0 0.60292,0.0982 0.79928,0.29447 0.19627,0.19631 0.29442,0.46274 0.29447,0.79927 -5e-5,0.33654 -0.0982,0.60297 -0.29447,0.79928 -0.19636,0.19631 -0.46279,0.29447 -0.79928,0.29447 l -19.43505,0 c -0.28047,0 -0.51885,-0.0982 -0.71514,-0.29447 -0.19634,-0.19631 -0.2945,-0.46274 -0.29447,-0.79928 -3e-5,-0.33653 0.0981,-0.60296 0.29447,-0.79927 0.19629,-0.19631 0.43467,-0.29447 0.71514,-0.29447 l 1.68269,0 0,-78.74982 c -3e-5,-1.7387 -0.22439,-2.90256 -0.67307,-3.49158 -0.44875,-0.58886 -1.06573,-0.88333 -1.85096,-0.88341 -1.45836,8e-5 -2.72037,0.81338 -3.78605,2.4399 -1.57053,2.41193 -2.35578,6.36624 -2.35576,11.86295 l 0,68.82196 2.10336,0 c 0.56087,0.39263 0.84132,0.75721 0.84134,1.09374 -2e-5,0.33654 -0.28047,0.70112 -0.84134,1.09375 l -20.5288,0 c -0.5609,-0.39263 -0.84135,-0.75721 -0.84135,-1.09375 0,-0.33653 0.28045,-0.70111 0.84135,-1.09374 l 3.61778,0 z"
           style="fill:#f9f9f9;font-family:Onyx;-inkscape-font-specification:Onyx"
           id="path3344" />
        <path
           d="m 362.44973,394.87914 c 0.78524,-0.28037 1.54245,-0.49071 2.27162,-0.63101 0.72916,-0.14014 1.40223,-0.21026 2.01923,-0.21034 2.24357,8e-5 4.13659,0.81338 5.67907,2.4399 1.54245,1.62668 2.31368,3.75808 2.3137,6.39422 -2e-5,2.69237 -0.78527,4.85182 -2.35576,6.47835 -1.57053,1.62666 -3.67389,2.43996 -6.31008,2.43989 -2.63623,7e-5 -4.71154,-0.82725 -6.22595,-2.48196 -1.51443,-1.65458 -2.27163,-4.10849 -2.27163,-7.36176 0,-4.82363 1.82291,-8.86208 5.46874,-12.11536 3.64581,-3.25311 8.83409,-4.87971 15.56486,-4.8798 6.05765,9e-5 10.41862,1.13591 13.08291,3.40745 2.66421,2.27171 3.99634,5.17435 3.99638,8.70791 l 0,72.69214 c -4e-5,0.84135 0.22432,1.52845 0.67308,2.06129 0.44867,0.53286 0.92543,0.79929 1.43028,0.79928 1.4022,10e-6 2.83248,-1.48637 4.29086,-4.45912 0.39258,-0.89743 0.7852,-1.34614 1.17788,-1.34615 l 1.00961,0.92547 c -5e-5,1.96315 -1.26206,4.03846 -3.78605,6.22595 -2.52407,2.1875 -5.55291,3.28124 -9.08651,3.28124 -3.02888,0 -5.37062,-0.70112 -7.02523,-2.10336 -1.65467,-1.40223 -2.90266,-3.87017 -3.74398,-7.40383 -2.58015,3.8141 -4.83775,6.35216 -6.77282,7.61417 -1.93511,1.26202 -4.22076,1.89302 -6.85696,1.89302 -3.19711,0 -5.65103,-0.82732 -7.36176,-2.48196 -1.71073,-1.65464 -2.5661,-3.82811 -2.5661,-6.52042 l 0,-31.71868 c 0,-3.42142 0.74319,-5.94545 2.22956,-7.57209 1.48637,-1.62655 5.87538,-3.64578 13.16704,-6.05768 3.25318,-1.12174 5.97352,-2.24353 8.16104,-3.36538 l 0,-24.23071 c -3e-5,-2.52395 -0.65908,-4.48709 -1.97716,-5.88941 -1.31813,-1.40215 -3.04288,-2.10327 -5.17427,-2.10336 -4.9359,9e-5 -8.60976,2.52412 -11.0216,7.5721 z m 18.17303,27.25955 c -3.58976,1.40229 -5.90345,2.80453 -6.94109,4.20672 -1.03768,1.40229 -1.5565,3.64587 -1.55649,6.73075 l 0,35.58886 c -10e-6,1.17789 0.21032,2.04728 0.63101,2.60817 0.42066,0.5609 0.93948,0.84135 1.55649,0.84134 0.89741,10e-6 1.90702,-0.95351 3.02884,-2.86057 2.18747,-3.53363 3.28121,-7.79644 3.28124,-12.78843 z"
           style="fill:#f9f9f9;font-family:Onyx;-inkscape-font-specification:Onyx"
           id="path3346" />
        <path
           d="m 410.91115,388.14838 -3.95432,0 c -0.50481,9e-5 -0.89743,-0.11209 -1.17788,-0.33654 -0.28045,-0.22427 -0.42067,-0.50471 -0.42067,-0.84134 0,-0.39254 0.2524,-0.81321 0.75721,-1.26202 4.71152,-3.64573 8.13298,-7.27753 10.2644,-10.8954 2.13139,-3.61768 4.01039,-7.83842 5.637,-12.66223 1.17787,-3.47744 1.79485,-5.88929 1.85096,-7.23557 l 0.16827,-3.87018 c 0.16825,-0.28032 0.42065,-0.42055 0.75721,-0.42067 0.33652,1.2e-4 0.60294,0.0843 0.79928,0.2524 0.19629,0.1684 0.29445,0.39275 0.29447,0.67308 l 0,34.41098 12.53603,0 c 0.44868,9e-5 0.79924,0.11227 1.05168,0.33653 0.25236,0.22445 0.37857,0.47686 0.3786,0.75721 -3e-5,0.33663 -0.11221,0.58903 -0.33654,0.75721 -0.28048,0.22445 -0.64506,0.33663 -1.09374,0.33654 l -12.53603,0 0,78.32915 c -2e-5,2.41186 0.33651,4.0665 1.00961,4.96393 0.44869,0.67308 1.12177,1.00962 2.01923,1.00961 1.90702,10e-6 3.5897,-1.09374 5.04806,-3.28124 2.18746,-3.25319 3.28121,-8.24516 3.28124,-14.97593 l 0,-12.28362 c -3e-5,-0.78522 0.16824,-1.40221 0.50481,-1.85096 0.22433,-0.28041 0.50477,-0.42064 0.84135,-0.42067 0.3365,3e-5 0.61695,0.14026 0.84134,0.42067 0.3365,0.44875 0.50477,1.06574 0.50481,1.85096 l 0,9.33892 c -4e-5,9.47916 -1.50044,16.18186 -4.5012,20.10813 -3.00082,3.92627 -6.7448,5.8894 -11.23194,5.8894 -4.20674,0 -7.29166,-1.14983 -9.25479,-3.44951 -2.69231,-3.08492 -4.03846,-7.45991 -4.03845,-13.12497 z"
           style="fill:#f9f9f9;font-family:Onyx;-inkscape-font-specification:Onyx"
           id="path3348" />
        <path
           d="m 446.41586,357.52345 c -1e-5,-2.41173 0.86938,-4.48704 2.60816,-6.22595 1.73877,-1.73865 3.78604,-2.60803 6.14182,-2.60816 2.52401,1.3e-4 4.65542,0.85549 6.39421,2.5661 1.73876,1.71085 2.60815,3.80019 2.60817,6.26801 -2e-5,2.46806 -0.86941,4.57142 -2.60817,6.31008 -1.73879,1.73889 -3.84215,2.60828 -6.31008,2.60817 -2.41186,1.1e-4 -4.48718,-0.86928 -6.22595,-2.60817 -1.73878,-1.73866 -2.60817,-3.84202 -2.60816,-6.31008 z m 1.26201,30.62493 -3.28124,0 c -0.33654,9e-5 -0.60297,-0.0981 -0.79928,-0.29447 -0.19631,-0.19622 -0.29447,-0.46265 -0.29447,-0.79928 0,-0.33644 0.0982,-0.60287 0.29447,-0.79927 0.19631,-0.19623 0.46274,-0.29438 0.79928,-0.29447 l 18.25717,0 0,88.08874 3.61778,0 c 0.33651,0 0.60294,0.0982 0.79928,0.29447 0.19628,0.19631 0.29444,0.49078 0.29447,0.88341 -3e-5,0.28045 -0.0982,0.51883 -0.29447,0.71514 -0.19634,0.19631 -0.46277,0.29447 -0.79928,0.29447 l -21.87495,0 c -0.5609,-0.39263 -0.84135,-0.75721 -0.84134,-1.09375 -1e-5,-0.39262 0.28044,-0.7572 0.84134,-1.09374 l 3.28124,0 z"
           style="fill:#f9f9f9;font-family:Onyx;-inkscape-font-specification:Onyx"
           id="path3350" />
        <path
           d="m 473.67542,437.28288 0,-16.49034 c -10e-6,-13.18099 2.21553,-22.85644 6.64662,-29.02638 3.25318,-4.54317 7.40381,-6.8148 12.45189,-6.81489 6.3381,9e-5 11.20387,3.33742 14.59732,10.012 3.39338,6.67474 5.09009,15.50884 5.09014,26.50234 l 0,18.25717 c -5e-5,14.30288 -2.18754,24.56727 -6.56249,30.7932 -3.14105,4.48717 -7.31972,6.73075 -12.53603,6.73075 -3.02886,0 -5.79127,-0.78525 -8.28724,-2.35576 -2.496,-1.57051 -4.7536,-4.40303 -6.77282,-8.49758 -2.01923,-4.09452 -3.29527,-9.53521 -3.82812,-16.32207 -0.53285,-6.78681 -0.79928,-11.04962 -0.79927,-12.78844 z m 23.7259,-41.47827 c -2e-5,-3.14093 -0.46276,-5.34245 -1.38821,-6.60455 -0.92551,-1.26193 -2.00523,-1.89293 -3.23918,-1.89302 -1.06572,9e-5 -2.01925,0.51891 -2.86057,1.55648 -0.84136,1.03775 -1.26203,2.62228 -1.26202,4.7536 l 0,70.67291 c -1e-5,4.43109 0.50479,7.43188 1.51442,9.00239 0.78524,1.12179 1.85094,1.68269 3.19711,1.68269 1.29004,0 2.28563,-0.49079 2.98677,-1.47236 0.7011,-0.98156 1.05166,-3.09894 1.05168,-6.35215 z"
           style="fill:#f9f9f9;font-family:Onyx;-inkscape-font-specification:Onyx"
           id="path3352" />
        <path
           d="m 522.47339,388.14838 -3.61778,0 -0.50481,-0.16827 c -0.16827,-0.22427 -0.2524,-0.53276 -0.2524,-0.92548 0,-0.33644 0.2524,-0.70103 0.75721,-1.09374 l 18.42544,0 0,6.89902 c 1.96311,-2.97266 3.8982,-5.03396 5.80527,-6.18388 1.90702,-1.14975 4.2067,-1.72467 6.89903,-1.72476 3.5897,9e-5 6.14177,0.89753 7.65623,2.6923 2.18745,2.58021 3.2812,6.28212 3.28124,11.10575 l 0,75.30031 2.77644,0 c 0.33649,0 0.60291,0.0982 0.79928,0.29447 0.19626,0.19631 0.29442,0.46274 0.29447,0.79927 -5e-5,0.33654 -0.0982,0.60297 -0.29447,0.79928 -0.19637,0.19631 -0.46279,0.29447 -0.79928,0.29447 l -19.43505,0 c -0.28048,0 -0.51886,-0.0982 -0.71515,-0.29447 -0.19634,-0.19631 -0.29449,-0.46274 -0.29447,-0.79928 -2e-5,-0.33653 0.0981,-0.60296 0.29447,-0.79927 0.19629,-0.19631 0.43467,-0.29447 0.71515,-0.29447 l 1.68269,0 0,-78.74982 c -3e-5,-1.7387 -0.22439,-2.90256 -0.67308,-3.49158 -0.44875,-0.58886 -1.06573,-0.88333 -1.85096,-0.88341 -1.45835,8e-5 -2.72037,0.81338 -3.78605,2.4399 -1.57053,2.41193 -2.35578,6.36624 -2.35576,11.86295 l 0,68.82196 2.10336,0 c 0.56087,0.39263 0.84132,0.75721 0.84134,1.09374 -2e-5,0.33654 -0.28047,0.70112 -0.84134,1.09375 l -20.5288,0 c -0.5609,-0.39263 -0.84134,-0.75721 -0.84134,-1.09375 0,-0.33653 0.28044,-0.70111 0.84134,-1.09374 l 3.61778,0 z"
           style="fill:#f9f9f9;font-family:Onyx;-inkscape-font-specification:Onyx"
           id="path3354" />
        <path
           d="m 575.14153,394.87914 c 0.78524,-0.28037 1.54245,-0.49071 2.27163,-0.63101 0.72915,-0.14014 1.40223,-0.21026 2.01922,-0.21034 2.24357,8e-5 4.1366,0.81338 5.67908,2.4399 1.54244,1.62668 2.31367,3.75808 2.31369,6.39422 -2e-5,2.69237 -0.78527,4.85182 -2.35576,6.47835 -1.57053,1.62666 -3.67388,2.43996 -6.31008,2.43989 -2.63622,7e-5 -4.71154,-0.82725 -6.22595,-2.48196 -1.51442,-1.65458 -2.27163,-4.10849 -2.27163,-7.36176 0,-4.82363 1.82291,-8.86208 5.46874,-12.11536 3.64581,-3.25311 8.8341,-4.87971 15.56487,-4.8798 6.05765,9e-5 10.41861,1.13591 13.0829,3.40745 2.66422,2.27171 3.99634,5.17435 3.99638,8.70791 l 0,72.69214 c -4e-5,0.84135 0.22432,1.52845 0.67308,2.06129 0.44868,0.53286 0.92544,0.79929 1.43029,0.79928 1.40219,10e-6 2.83248,-1.48637 4.29085,-4.45912 0.39258,-0.89743 0.78521,-1.34614 1.17788,-1.34615 l 1.00962,0.92547 c -5e-5,1.96315 -1.26207,4.03846 -3.78605,6.22595 -2.52408,2.1875 -5.55291,3.28124 -9.08652,3.28124 -3.02887,0 -5.37061,-0.70112 -7.02522,-2.10336 -1.65468,-1.40223 -2.90267,-3.87017 -3.74399,-7.40383 -2.58014,3.8141 -4.83775,6.35216 -6.77282,7.61417 -1.93511,1.26202 -4.22076,1.89302 -6.85695,1.89302 -3.19712,0 -5.65104,-0.82732 -7.36177,-2.48196 -1.71073,-1.65464 -2.5661,-3.82811 -2.56609,-6.52042 l 0,-31.71868 c -10e-6,-3.42142 0.74318,-5.94545 2.22956,-7.57209 1.48637,-1.62655 5.87537,-3.64578 13.16703,-6.05768 3.25318,-1.12174 5.97352,-2.24353 8.16104,-3.36538 l 0,-24.23071 c -2e-5,-2.52395 -0.65907,-4.48709 -1.97716,-5.88941 -1.31812,-1.40215 -3.04288,-2.10327 -5.17426,-2.10336 -4.9359,9e-5 -8.60977,2.52412 -11.02161,7.5721 z m 18.17303,27.25955 c -3.58975,1.40229 -5.90345,2.80453 -6.94109,4.20672 -1.03767,1.40229 -1.5565,3.64587 -1.55648,6.73075 l 0,35.58886 c -2e-5,1.17789 0.21032,2.04728 0.631,2.60817 0.42066,0.5609 0.93949,0.84135 1.55649,0.84134 0.89742,10e-6 1.90703,-0.95351 3.02884,-2.86057 2.18747,-3.53363 3.28122,-7.79644 3.28124,-12.78843 z"
           style="fill:#f9f9f9;font-family:Onyx;-inkscape-font-specification:Onyx"
           id="path3356" />
        <path
           d="m 637.56927,349.69895 0,124.35068 3.28124,0 c 0.28042,0 0.5188,0.0982 0.71514,0.29447 0.19629,0.19631 0.29445,0.46274 0.29447,0.79927 -2e-5,0.33654 -0.0982,0.60297 -0.29447,0.79928 -0.19634,0.19631 -0.43472,0.29447 -0.71514,0.29447 l -21.95908,0 c -0.28045,0 -0.51884,-0.0982 -0.71515,-0.29447 -0.19631,-0.19631 -0.29447,-0.46274 -0.29447,-0.79928 0,-0.33653 0.0982,-0.60296 0.29447,-0.79927 0.19631,-0.19631 0.4347,-0.29447 0.71515,-0.29447 l 3.53364,0 0,-122.24732 -3.53364,0 c -0.33654,1.3e-4 -0.61699,-0.098 -0.84135,-0.29447 -0.22436,-0.19619 -0.33654,-0.43457 -0.33654,-0.71514 0,-0.33641 0.11218,-0.58882 0.33654,-0.75721 0.22436,-0.22423 0.50481,-0.33641 0.84135,-0.33654 z"
           style="fill:#f9f9f9;font-family:Onyx;-inkscape-font-specification:Onyx"
           id="path3358" />
      </g>
      <g
         style="font-size:172.30729675px;line-height:125%;font-family:Sans"
         id="text3001-1">
        <path
           d="m 342.94289,606.55766 0,-122.16319 -5.30047,0 c -0.39263,1.3e-4 -0.6871,-0.098 -0.88341,-0.29447 -0.19631,-0.19619 -0.29447,-0.46261 -0.29447,-0.79927 0,-0.28033 0.0982,-0.51871 0.29447,-0.71515 0.19631,-0.19618 0.49078,-0.29434 0.88341,-0.29447 l 21.79082,0 c 6.67463,1.3e-4 12.11532,1.51455 16.32207,4.54326 4.20668,3.02896 7.29161,7.88071 9.25479,14.55526 2.58007,8.91834 3.87013,18.42552 3.87018,28.52157 l 0,31.21387 c -5e-5,10.48879 -1.26206,19.96793 -3.78605,28.43743 -1.45837,4.76763 -3.30933,8.48357 -5.55287,11.14781 -2.24362,2.66427 -4.96397,4.68349 -8.16104,6.05768 -3.19714,1.3742 -7.17949,2.06129 -11.94708,2.06129 l -21.79082,0 c -0.39263,0 -0.6871,-0.0982 -0.88341,-0.29447 -0.19631,-0.19631 -0.29447,-0.46273 -0.29447,-0.79927 0,-0.39263 0.0982,-0.6871 0.29447,-0.88341 0.19631,-0.19632 0.49078,-0.29447 0.88341,-0.29447 z m 17.41582,0 1.9351,0 c 3.42143,0 5.66502,-0.60297 6.73075,-1.80889 1.06567,-1.20593 1.59852,-4.30487 1.59855,-9.29686 l 0,-101.71851 c -3e-5,-3.64571 -0.51886,-6.11365 -1.55648,-7.40383 -1.03769,-1.28994 -2.62222,-1.93497 -4.7536,-1.9351 l -3.95432,0 z"
           style="fill:#f9f9f9;font-family:Onyx;-inkscape-font-specification:Onyx"
           id="path3321" />
        <path
           d="m 396.95719,490.11561 c -1e-5,-2.41173 0.86938,-4.48704 2.60816,-6.22594 1.73877,-1.73865 3.78604,-2.60804 6.14182,-2.60817 2.52401,1.3e-4 4.65542,0.85549 6.39421,2.5661 1.73876,1.71086 2.60815,3.80019 2.60817,6.26801 -2e-5,2.46806 -0.86941,4.57142 -2.60817,6.31009 -1.73879,1.73889 -3.84215,2.60827 -6.31008,2.60816 -2.41186,1.1e-4 -4.48718,-0.86927 -6.22595,-2.60816 -1.73878,-1.73867 -2.60817,-3.84203 -2.60816,-6.31009 z m 1.26201,30.62493 -3.28124,0 c -0.33654,9e-5 -0.60296,-0.0981 -0.79928,-0.29447 -0.19631,-0.19622 -0.29447,-0.46265 -0.29447,-0.79927 0,-0.33645 0.0982,-0.60288 0.29447,-0.79928 0.19632,-0.19622 0.46274,-0.29438 0.79928,-0.29447 l 18.25717,0 0,88.08874 3.61778,0 c 0.33651,0 0.60294,0.0982 0.79928,0.29447 0.19629,0.19632 0.29444,0.49079 0.29447,0.88341 -3e-5,0.28045 -0.0982,0.51883 -0.29447,0.71514 -0.19634,0.19632 -0.46277,0.29447 -0.79928,0.29447 l -21.87495,0 c -0.5609,-0.39262 -0.84134,-0.7572 -0.84134,-1.09374 0,-0.39263 0.28044,-0.75721 0.84134,-1.09375 l 3.28124,0 z"
           style="fill:#f9f9f9;font-family:Onyx;-inkscape-font-specification:Onyx"
           id="path3323" />
        <path
           d="m 437.34171,590.23558 c -3.42148,-3.19709 -5.91747,-6.98313 -7.48797,-11.35815 -2.1875,-6.16982 -3.28124,-14.16258 -3.28124,-23.97831 0,-14.02234 2.24358,-24.17455 6.73076,-30.45666 3.25318,-4.59926 7.51598,-6.89893 12.78843,-6.89902 3.36535,9e-5 6.42223,1.17797 9.17065,3.53364 1.29003,-2.63612 2.72031,-4.61328 4.29086,-5.93147 1.57046,-1.31802 3.2812,-1.97707 5.1322,-1.97716 1.96309,9e-5 3.54762,0.65914 4.75359,1.97716 1.20588,1.31819 1.80884,3.18317 1.80889,5.59493 -5e-5,2.07541 -0.42072,3.63189 -1.26202,4.66947 -0.84139,1.03774 -1.79491,1.55656 -2.86057,1.55648 -1.17792,8e-5 -2.13145,-0.40657 -2.86057,-1.21995 -0.7292,-0.81321 -1.09379,-2.00512 -1.09374,-3.57571 l 0,-0.92548 c 0.056,-0.50472 0.0841,-0.92539 0.0841,-1.26202 -4e-5,-0.95343 -0.15429,-1.59846 -0.46274,-1.93509 -0.30853,-0.33644 -0.74323,-0.50471 -1.30408,-0.5048 -0.7853,9e-5 -1.57055,0.4488 -2.35577,1.34615 -0.78529,0.89752 -1.5425,2.27171 -2.27163,4.12258 5.32848,6.78693 7.99273,17.80852 7.99277,33.06483 -4e-5,13.29328 -2.27167,23.137 -6.81488,29.53118 -3.36542,4.71155 -7.43191,7.06731 -12.19949,7.0673 -0.72919,10e-6 -1.65467,-0.028 -2.77644,-0.0841 -0.6731,-0.0561 -2.43992,-0.0841 -5.30047,-0.0841 -3.42148,10e-6 -5.84735,0.50482 -7.27763,1.51442 -1.43029,1.00962 -2.14543,1.99119 -2.14542,2.9447 -1e-5,0.89745 0.39261,1.62661 1.17788,2.1875 1.12178,0.78526 2.8886,1.17789 5.30047,1.17788 l 13.37737,0 c 6.56245,10e-6 11.34408,1.48638 14.34492,4.45912 3.00075,2.97275 4.50114,7.54405 4.50119,13.71391 -5e-5,6.73074 -1.99123,12.01718 -5.97354,15.85934 -3.9824,3.84211 -9.53527,5.76318 -16.65862,5.76321 -7.17949,-3e-5 -12.62018,-1.50043 -16.32208,-4.50119 -3.70192,-3.00082 -5.55287,-6.43631 -5.55287,-10.30647 0,-2.41187 0.58894,-4.66947 1.76682,-6.77282 1.17788,-2.10337 2.91666,-4.05248 5.21634,-5.84734 -1.79488,-1.17789 -3.15505,-2.59415 -4.08052,-4.24879 -0.92549,-1.65464 -1.38822,-3.54766 -1.38822,-5.67907 0,-3.70191 0.98156,-6.54845 2.9447,-8.53965 1.96313,-1.99116 5.41264,-3.32329 10.34854,-3.99638 z m 12.36776,-64.19457 c -3e-5,-2.69221 -0.35059,-4.48708 -1.05168,-5.3846 -0.70115,-0.89734 -1.69674,-1.34606 -2.98677,-1.34615 -1.234,9e-5 -2.24361,0.49087 -3.02884,1.47235 -0.78528,0.98166 -1.17791,2.73446 -1.17788,5.2584 l 0,55.94939 c -3e-5,3.30931 0.50478,5.66508 1.51441,7.0673 0.72915,1.00963 1.71071,1.51443 2.94471,1.51442 1.12176,10e-6 2.03322,-0.4487 2.73437,-1.34616 0.70109,-0.89741 1.05165,-2.46792 1.05168,-4.71152 z m -18.50957,87.92047 c -1.51443,1.45833 -2.65025,2.9447 -3.40745,4.45913 -0.75722,1.51441 -1.13582,3.02883 -1.13581,4.54326 -10e-6,2.91664 1.59854,5.65101 4.79566,8.2031 3.19709,2.55206 7.76839,3.82809 13.71391,3.82812 6.05765,-3e-5 10.99353,-1.4864 14.80766,-4.45912 2.86053,-2.35579 4.29081,-5.10418 4.29085,-8.24518 -4e-5,-2.35577 -0.78529,-4.09455 -2.35576,-5.21633 -2.13145,-1.45834 -6.4223,-2.1875 -12.87257,-2.1875 l -3.44951,0 c -5.60898,0 -10.40464,-0.3085 -14.38698,-0.92548 z"
           style="fill:#f9f9f9;font-family:Onyx;-inkscape-font-specification:Onyx"
           id="path3325" />
        <path
           d="m 489.75746,563.98564 0,31.298 c -2e-5,4.87981 0.56088,8.10496 1.68269,9.67546 0.84132,1.17789 2.21551,1.76683 4.12258,1.76682 3.14099,10e-6 5.94547,-1.76681 8.41344,-5.30046 4.09451,-5.94549 6.282,-14.05043 6.56249,-24.31485 0.0561,-3.36534 0.2103,-5.27239 0.46274,-5.72114 0.25236,-0.44868 0.60292,-0.67304 1.05168,-0.67308 0.39259,4e-5 0.70108,0.16831 0.92548,0.50481 0.2804,0.44875 0.42063,1.51445 0.42067,3.19711 -4e-5,9.98397 -1.75284,18.38338 -5.2584,25.19826 -3.50563,6.81489 -8.23118,10.22233 -14.17665,10.22233 -5.55289,0 -10.15223,-2.62219 -13.79805,-7.86657 -3.64583,-5.24437 -5.46874,-16.61653 -5.46873,-34.11651 l 0,-12.36776 c -1e-5,-13.40535 2.46793,-23.58561 7.40382,-30.54079 3.53364,-4.9358 7.79644,-7.40374 12.78844,-7.40383 5.94547,9e-5 10.53079,3.16915 13.75597,9.50719 3.22512,6.3382 4.83769,14.05051 4.83773,23.13696 l 0,13.79805 z m 8.74998,-2.27163 0,-35.84127 c -3e-5,-2.29958 -0.44875,-4.03836 -1.34615,-5.21633 -0.61701,-0.84126 -1.54249,-1.26193 -2.77644,-1.26202 -1.23399,9e-5 -2.31372,0.53294 -3.23918,1.59856 -0.92549,1.06579 -1.38823,2.69238 -1.38821,4.87979 l 0,35.84127 z"
           style="fill:#f9f9f9;font-family:Onyx;-inkscape-font-specification:Onyx"
           id="path3327" />
        <path
           d="m 527.70207,603.19228 c -1.06571,0.84135 -2.35577,2.29968 -3.87018,4.37499 -1.1218,1.51442 -1.96314,2.27163 -2.52403,2.27163 -0.22436,0 -0.42068,-0.0841 -0.58894,-0.25241 -0.16827,-0.16826 -0.25241,-0.42067 -0.25241,-0.75721 l 0,-39.45904 c 0,-0.39259 0.0982,-0.68706 0.29448,-0.88341 0.19631,-0.19627 0.43469,-0.29443 0.71514,-0.29447 0.33653,4e-5 0.58893,0.11222 0.75721,0.33654 0.16826,0.22439 0.30849,1.12183 0.42067,2.6923 0.72916,10.88141 2.58011,19.96792 5.55287,27.25955 2.13139,5.27243 4.65542,7.90864 7.5721,7.90864 1.45831,0 2.77641,-0.71514 3.95432,-2.14543 1.17786,-1.43028 1.7668,-3.49157 1.76682,-6.18388 -2e-5,-3.08492 -0.65908,-6.85694 -1.97716,-11.31608 -1.31813,-4.4591 -4.09456,-11.35811 -8.32931,-20.69707 -4.23477,-9.33887 -6.95512,-16.08364 -8.16104,-20.23433 -1.20593,-4.15056 -1.80889,-7.79638 -1.80889,-10.93747 0,-5.16017 1.41626,-9.33884 4.24879,-12.53603 2.83252,-3.19702 6.12778,-4.79557 9.8858,-4.79566 3.36535,9e-5 6.61855,1.54255 9.75959,4.62739 0.84132,-0.56081 2.10333,-1.65456 3.78605,-3.28124 0.95349,-0.84126 1.59852,-1.26193 1.93509,-1.26202 0.22433,9e-5 0.42064,0.0562 0.58894,0.16827 0.16824,0.22445 0.25237,0.47685 0.25241,0.75721 l 0,35.50473 c -4e-5,0.39268 -0.11222,0.70117 -0.33654,0.92547 -0.22439,0.22442 -0.4768,0.3366 -0.75721,0.33654 -0.33657,6e-5 -0.58898,-0.14017 -0.75721,-0.42067 -0.1683,-0.28039 -0.30853,-1.12174 -0.42067,-2.52403 -0.7292,-10.37651 -2.29971,-18.78995 -4.71153,-25.24033 -1.73881,-4.48708 -4.01043,-6.73066 -6.81489,-6.73075 -1.57053,9e-5 -2.88863,0.58903 -3.95432,1.76682 -1.06572,1.17797 -1.59857,2.77652 -1.59855,4.79566 -2e-5,5.10423 3.33731,14.33097 10.01199,27.68023 4.48714,8.8622 7.54402,15.92949 9.17066,21.20187 1.62656,5.27245 2.43986,9.92789 2.43989,13.96632 -3e-5,6.11378 -1.57054,10.97955 -4.71152,14.59732 -3.14105,3.61778 -6.78687,5.42667 -10.93748,5.42667 -2.13142,0 -3.9964,-0.49079 -5.59494,-1.47235 -1.59856,-0.98157 -3.26723,-2.70633 -5.006,-5.17427 z"
           style="fill:#f9f9f9;font-family:Onyx;-inkscape-font-specification:Onyx"
           id="path3329" />
        <path
           d="m 564.04814,520.74054 -3.95431,0 c -0.50481,9e-5 -0.89744,-0.11209 -1.17789,-0.33653 -0.28045,-0.22427 -0.42067,-0.50472 -0.42067,-0.84135 0,-0.39253 0.2524,-0.81321 0.75721,-1.26201 4.71152,-3.64573 8.13299,-7.27753 10.2644,-10.89541 2.13139,-3.61768 4.01039,-7.83842 5.63701,-12.66223 1.17786,-3.47744 1.79485,-5.88929 1.85096,-7.23556 l 0.16826,-3.87019 c 0.16825,-0.28032 0.42066,-0.42054 0.75721,-0.42067 0.33652,1.3e-4 0.60295,0.0843 0.79928,0.25241 0.19629,0.16839 0.29445,0.39275 0.29447,0.67307 l 0,34.41098 12.53603,0 c 0.44868,9e-5 0.79924,0.11227 1.05168,0.33654 0.25237,0.22445 0.37857,0.47685 0.37861,0.75721 -4e-5,0.33662 -0.11222,0.58903 -0.33654,0.75721 -0.28049,0.22444 -0.64507,0.33662 -1.09375,0.33653 l -12.53603,0 0,78.32915 c -2e-5,2.41186 0.33652,4.0665 1.00961,4.96393 0.4487,0.67308 1.12177,1.00962 2.01923,1.00962 1.90702,0 3.58971,-1.09375 5.04807,-3.28125 2.18746,-3.25318 3.2812,-8.24515 3.28124,-14.97592 l 0,-12.28363 c -4e-5,-0.78522 0.16823,-1.4022 0.5048,-1.85096 0.22433,-0.28041 0.50478,-0.42063 0.84135,-0.42067 0.3365,4e-5 0.61695,0.14026 0.84134,0.42067 0.3365,0.44876 0.50477,1.06574 0.50481,1.85096 l 0,9.33892 c -4e-5,9.47916 -1.50043,16.18186 -4.50119,20.10813 -3.00083,3.92627 -6.7448,5.88941 -11.23195,5.88941 -4.20673,0 -7.29166,-1.14984 -9.25478,-3.44951 -2.69231,-3.08493 -4.03846,-7.45991 -4.03846,-13.12497 z"
           style="fill:#f9f9f9;font-family:Onyx;-inkscape-font-specification:Onyx"
           id="path3331" />
      </g>
    </g>
  </g>
</svg>
